<svg width="176" height="137" viewBox="0 0 176 137" fill="none" xmlns="http://www.w3.org/2000/svg">
<g filter="url(#filter0_di_560_59)">
<path fill-rule="evenodd" clip-rule="evenodd" d="M32.3958 15.252C32.3958 15.1272 32.5044 14.5625 32.9977 13.7085C33.4617 12.9051 34.1985 11.9677 35.2608 11.0965C37.3586 9.37604 40.7912 7.86063 46.0552 8.24705C66.8187 9.77123 78.5719 24.0774 78.5719 34.9381V98.9176C78.5719 99.9497 78.3337 100.451 78.0916 100.703C77.8608 100.943 77.3726 101.221 76.2545 101.221H63.9044C62.7863 101.221 62.2981 100.943 62.0673 100.703C61.8252 100.451 61.5871 99.9497 61.5871 98.9176V39.8596C61.5871 36.0368 59.7076 32.2107 56.9284 29.3665C54.1435 26.5165 50.2961 24.4899 46.1651 24.4899H32.3958V15.252ZM46.1651 27.4899H32.3958V98.9176C32.3957 100.5 32.1028 101.978 31.0312 102.997C29.9771 103.999 28.5163 104.221 27.0784 104.221H14.5037C13.2235 104.221 11.8367 103.973 10.7673 103.04C9.65667 102.072 9.1864 100.634 9.1864 98.9176V39.1888C9.18639 36.2424 10.8725 32.6047 13.3759 29.754C15.8991 26.8806 19.532 24.4899 23.7088 24.4899H29.3958V15.252C29.3958 14.3702 29.7889 13.2657 30.3999 12.2079C31.0402 11.0995 32.0102 9.88253 33.3584 8.77688C36.0813 6.54366 40.2833 4.81528 46.2749 5.2551C68.1756 6.86277 81.5719 22.1084 81.5719 34.9381V98.9176C81.5719 100.346 81.2486 101.747 80.2557 102.781C79.2515 103.827 77.8311 104.221 76.2545 104.221H63.9044C62.3278 104.221 60.9074 103.827 59.9032 102.781C58.9102 101.746 58.5871 100.346 58.5871 98.9176V39.8596C58.5871 36.9893 57.1448 33.8806 54.7827 31.4632C52.4263 29.0517 49.3127 27.4899 46.1651 27.4899ZM23.7088 27.4899H29.3958V98.9176C29.3957 100.243 29.1272 100.667 28.9639 100.823C28.783 100.995 28.335 101.221 27.0784 101.221H14.5037C13.5383 101.221 13.0165 101.021 12.7386 100.779C12.502 100.573 12.1864 100.11 12.1864 98.9176V39.1887C12.1864 37.2136 13.4187 34.2518 15.6301 31.7335C17.8217 29.2378 20.7001 27.4899 23.7088 27.4899ZM143.653 113.248C143.653 113.373 143.545 113.937 143.051 114.791C142.587 115.595 141.851 116.532 140.788 117.403C138.69 119.124 135.258 120.639 129.994 120.253C109.23 118.729 97.4772 104.422 97.4772 93.5617V29.5822C97.4772 28.5501 97.7154 28.0489 97.9574 27.7968C98.1882 27.5564 98.6765 27.2792 99.7945 27.2792H112.145C113.263 27.2792 113.751 27.5564 113.982 27.7968C114.224 28.0489 114.462 28.5501 114.462 29.5822V88.6402C114.462 92.463 116.341 96.289 119.121 99.1333C121.906 101.983 125.753 104.01 129.884 104.01H143.653V113.248ZM129.884 101.01H143.653V29.5822C143.653 27.9997 143.946 26.5222 145.018 25.5032C146.072 24.5007 147.533 24.2792 148.971 24.2792H161.545C162.826 24.2792 164.212 24.5272 165.282 25.4594C166.392 26.4276 166.863 27.8661 166.863 29.5822V89.311C166.863 92.2574 165.177 95.8951 162.673 98.7458C160.15 101.619 156.517 104.01 152.34 104.01H146.653V113.248C146.653 114.13 146.26 115.234 145.649 116.292C145.009 117.4 144.039 118.617 142.691 119.723C139.968 121.956 135.766 123.685 129.774 123.245C107.874 121.637 94.4772 106.391 94.4772 93.5617V29.5822C94.4772 28.1536 94.8004 26.7533 95.7934 25.7191C96.7976 24.6732 98.218 24.2792 99.7945 24.2792H112.145C113.721 24.2792 115.142 24.6732 116.146 25.7191C117.139 26.7533 117.462 28.1536 117.462 29.5822V88.6402C117.462 91.5104 118.904 94.6192 121.266 97.0366C123.623 99.4481 126.736 101.01 129.884 101.01ZM152.34 101.01H146.653V29.5822C146.653 28.2566 146.922 27.8325 147.085 27.6771C147.266 27.5051 147.714 27.2792 148.971 27.2792H161.545C162.511 27.2792 163.033 27.4786 163.31 27.7208C163.547 27.9271 163.863 28.3901 163.863 29.5822V89.311C163.863 91.2862 162.63 94.248 160.419 96.7663C158.227 99.262 155.349 101.01 152.34 101.01Z" fill="white"/>
</g>
<defs>
<filter id="filter0_di_560_59" x="0.231987" y="0.709133" width="175.585" height="136.036" filterUnits="userSpaceOnUse" color-interpolation-filters="sRGB">
<feFlood flood-opacity="0" result="BackgroundImageFix"/>
<feColorMatrix in="SourceAlpha" type="matrix" values="0 0 0 0 0 0 0 0 0 0 0 0 0 0 0 0 0 0 127 0" result="hardAlpha"/>
<feOffset dy="4.47721"/>
<feGaussianBlur stdDeviation="4.47721"/>
<feColorMatrix type="matrix" values="0 0 0 0 0.247059 0 0 0 0 0.00784314 0 0 0 0 0.321569 0 0 0 0.8 0"/>
<feBlend mode="normal" in2="BackgroundImageFix" result="effect1_dropShadow_560_59"/>
<feBlend mode="normal" in="SourceGraphic" in2="effect1_dropShadow_560_59" result="shape"/>
<feColorMatrix in="SourceAlpha" type="matrix" values="0 0 0 0 0 0 0 0 0 0 0 0 0 0 0 0 0 0 127 0" result="hardAlpha"/>
<feOffset dx="1.34316" dy="-1.34316"/>
<feGaussianBlur stdDeviation="2.2386"/>
<feComposite in2="hardAlpha" operator="arithmetic" k2="-1" k3="1"/>
<feColorMatrix type="matrix" values="0 0 0 0 0.869975 0 0 0 0 0.596354 0 0 0 0 0.954167 0 0 0 0.5 0"/>
<feBlend mode="normal" in2="shape" result="effect2_innerShadow_560_59"/>
</filter>
</defs>
</svg>
